<mxfile host="app.diagrams.net" agent="Mozilla/5.0 (Windows NT 10.0; Win64; x64) AppleWebKit/537.36 (KHTML, like Gecko) Chrome/136.0.0.0 Safari/537.36" version="27.0.6">
  <diagram name="PÃ¡gina-1" id="E7Uo0oVk0V3AD-LZ1_do">
    <mxGraphModel dx="1042" dy="535" grid="1" gridSize="10" guides="1" tooltips="1" connect="1" arrows="1" fold="1" page="1" pageScale="1" pageWidth="827" pageHeight="1169" math="0" shadow="0">
      <root>
        <mxCell id="0" />
        <mxCell id="1" parent="0" />
        <mxCell id="jrPdWScyA5hSkd9RIaAq-7" style="edgeStyle=orthogonalEdgeStyle;rounded=0;orthogonalLoop=1;jettySize=auto;html=1;exitX=0.5;exitY=0;exitDx=0;exitDy=0;entryX=0;entryY=0.5;entryDx=0;entryDy=0;" edge="1" parent="1" source="jrPdWScyA5hSkd9RIaAq-1" target="jrPdWScyA5hSkd9RIaAq-6">
          <mxGeometry relative="1" as="geometry" />
        </mxCell>
        <mxCell id="jrPdWScyA5hSkd9RIaAq-1" value="Cliente" style="whiteSpace=wrap;html=1;align=center;" vertex="1" parent="1">
          <mxGeometry x="30" y="200" width="100" height="40" as="geometry" />
        </mxCell>
        <mxCell id="jrPdWScyA5hSkd9RIaAq-28" style="edgeStyle=orthogonalEdgeStyle;rounded=0;orthogonalLoop=1;jettySize=auto;html=1;exitX=0.5;exitY=1;exitDx=0;exitDy=0;entryX=0.5;entryY=0;entryDx=0;entryDy=0;" edge="1" parent="1" source="jrPdWScyA5hSkd9RIaAq-2" target="jrPdWScyA5hSkd9RIaAq-26">
          <mxGeometry relative="1" as="geometry" />
        </mxCell>
        <mxCell id="jrPdWScyA5hSkd9RIaAq-2" value="Pedido de compra" style="shape=ext;margin=3;double=1;whiteSpace=wrap;html=1;align=center;" vertex="1" parent="1">
          <mxGeometry x="375" y="35" width="120" height="50" as="geometry" />
        </mxCell>
        <mxCell id="jrPdWScyA5hSkd9RIaAq-3" value="Editorial" style="whiteSpace=wrap;html=1;align=center;" vertex="1" parent="1">
          <mxGeometry x="385" y="440" width="100" height="40" as="geometry" />
        </mxCell>
        <mxCell id="jrPdWScyA5hSkd9RIaAq-17" style="edgeStyle=orthogonalEdgeStyle;rounded=0;orthogonalLoop=1;jettySize=auto;html=1;exitX=0.5;exitY=1;exitDx=0;exitDy=0;entryX=0.5;entryY=0;entryDx=0;entryDy=0;" edge="1" parent="1" source="jrPdWScyA5hSkd9RIaAq-4" target="jrPdWScyA5hSkd9RIaAq-16">
          <mxGeometry relative="1" as="geometry" />
        </mxCell>
        <mxCell id="jrPdWScyA5hSkd9RIaAq-22" style="edgeStyle=orthogonalEdgeStyle;rounded=0;orthogonalLoop=1;jettySize=auto;html=1;exitX=1;exitY=0.5;exitDx=0;exitDy=0;entryX=0;entryY=0.5;entryDx=0;entryDy=0;" edge="1" parent="1" source="jrPdWScyA5hSkd9RIaAq-4" target="jrPdWScyA5hSkd9RIaAq-21">
          <mxGeometry relative="1" as="geometry" />
        </mxCell>
        <mxCell id="jrPdWScyA5hSkd9RIaAq-4" value="Libros" style="shape=ext;margin=3;double=1;whiteSpace=wrap;html=1;align=center;" vertex="1" parent="1">
          <mxGeometry x="370" y="260" width="130" height="40" as="geometry" />
        </mxCell>
        <mxCell id="jrPdWScyA5hSkd9RIaAq-5" value="Inventario" style="shape=ext;margin=3;double=1;whiteSpace=wrap;html=1;align=center;" vertex="1" parent="1">
          <mxGeometry x="655" y="140" width="130" height="40" as="geometry" />
        </mxCell>
        <mxCell id="jrPdWScyA5hSkd9RIaAq-8" style="edgeStyle=orthogonalEdgeStyle;rounded=0;orthogonalLoop=1;jettySize=auto;html=1;exitX=1;exitY=0.5;exitDx=0;exitDy=0;entryX=0;entryY=0.5;entryDx=0;entryDy=0;" edge="1" parent="1" source="jrPdWScyA5hSkd9RIaAq-6" target="jrPdWScyA5hSkd9RIaAq-2">
          <mxGeometry relative="1" as="geometry" />
        </mxCell>
        <mxCell id="jrPdWScyA5hSkd9RIaAq-6" value="Realiza" style="shape=rhombus;perimeter=rhombusPerimeter;whiteSpace=wrap;html=1;align=center;" vertex="1" parent="1">
          <mxGeometry x="120" y="30" width="120" height="60" as="geometry" />
        </mxCell>
        <mxCell id="jrPdWScyA5hSkd9RIaAq-9" value="(1,1)" style="text;html=1;align=center;verticalAlign=middle;whiteSpace=wrap;rounded=0;" vertex="1" parent="1">
          <mxGeometry x="64" y="177" width="60" height="30" as="geometry" />
        </mxCell>
        <mxCell id="jrPdWScyA5hSkd9RIaAq-10" value="(0,N)" style="text;html=1;align=center;verticalAlign=middle;whiteSpace=wrap;rounded=0;" vertex="1" parent="1">
          <mxGeometry x="331" y="35" width="60" height="30" as="geometry" />
        </mxCell>
        <mxCell id="jrPdWScyA5hSkd9RIaAq-14" value="(1,N)" style="text;html=1;align=center;verticalAlign=middle;whiteSpace=wrap;rounded=0;" vertex="1" parent="1">
          <mxGeometry x="389" y="79" width="60" height="30" as="geometry" />
        </mxCell>
        <mxCell id="jrPdWScyA5hSkd9RIaAq-15" value="(1,N)" style="text;html=1;align=center;verticalAlign=middle;whiteSpace=wrap;rounded=0;" vertex="1" parent="1">
          <mxGeometry x="386" y="236" width="60" height="30" as="geometry" />
        </mxCell>
        <mxCell id="jrPdWScyA5hSkd9RIaAq-18" style="edgeStyle=orthogonalEdgeStyle;rounded=0;orthogonalLoop=1;jettySize=auto;html=1;exitX=0.5;exitY=1;exitDx=0;exitDy=0;entryX=0.5;entryY=0;entryDx=0;entryDy=0;" edge="1" parent="1" source="jrPdWScyA5hSkd9RIaAq-16" target="jrPdWScyA5hSkd9RIaAq-3">
          <mxGeometry relative="1" as="geometry" />
        </mxCell>
        <mxCell id="jrPdWScyA5hSkd9RIaAq-16" value="Pertenece" style="shape=rhombus;perimeter=rhombusPerimeter;whiteSpace=wrap;html=1;align=center;" vertex="1" parent="1">
          <mxGeometry x="375" y="340" width="120" height="60" as="geometry" />
        </mxCell>
        <mxCell id="jrPdWScyA5hSkd9RIaAq-19" value="(1,N)" style="text;html=1;align=center;verticalAlign=middle;whiteSpace=wrap;rounded=0;" vertex="1" parent="1">
          <mxGeometry x="422" y="294" width="60" height="30" as="geometry" />
        </mxCell>
        <mxCell id="jrPdWScyA5hSkd9RIaAq-20" value="(1,1)" style="text;html=1;align=center;verticalAlign=middle;whiteSpace=wrap;rounded=0;" vertex="1" parent="1">
          <mxGeometry x="386" y="415" width="60" height="30" as="geometry" />
        </mxCell>
        <mxCell id="jrPdWScyA5hSkd9RIaAq-23" style="edgeStyle=orthogonalEdgeStyle;rounded=0;orthogonalLoop=1;jettySize=auto;html=1;exitX=0.5;exitY=0;exitDx=0;exitDy=0;entryX=0.5;entryY=1;entryDx=0;entryDy=0;" edge="1" parent="1" source="jrPdWScyA5hSkd9RIaAq-21" target="jrPdWScyA5hSkd9RIaAq-5">
          <mxGeometry relative="1" as="geometry" />
        </mxCell>
        <mxCell id="jrPdWScyA5hSkd9RIaAq-21" value="Existe" style="shape=rhombus;perimeter=rhombusPerimeter;whiteSpace=wrap;html=1;align=center;" vertex="1" parent="1">
          <mxGeometry x="660" y="250" width="120" height="60" as="geometry" />
        </mxCell>
        <mxCell id="jrPdWScyA5hSkd9RIaAq-24" value="(1,N)" style="text;html=1;align=center;verticalAlign=middle;whiteSpace=wrap;rounded=0;" vertex="1" parent="1">
          <mxGeometry x="488" y="257" width="60" height="30" as="geometry" />
        </mxCell>
        <mxCell id="jrPdWScyA5hSkd9RIaAq-25" value="(0,1)" style="text;html=1;align=center;verticalAlign=middle;whiteSpace=wrap;rounded=0;" vertex="1" parent="1">
          <mxGeometry x="672" y="174" width="60" height="30" as="geometry" />
        </mxCell>
        <mxCell id="jrPdWScyA5hSkd9RIaAq-29" style="edgeStyle=orthogonalEdgeStyle;rounded=0;orthogonalLoop=1;jettySize=auto;html=1;" edge="1" parent="1" source="jrPdWScyA5hSkd9RIaAq-26" target="jrPdWScyA5hSkd9RIaAq-4">
          <mxGeometry relative="1" as="geometry" />
        </mxCell>
        <mxCell id="jrPdWScyA5hSkd9RIaAq-26" value="Contiene" style="shape=associativeEntity;whiteSpace=wrap;html=1;align=center;" vertex="1" parent="1">
          <mxGeometry x="372.5" y="150" width="125" height="40" as="geometry" />
        </mxCell>
        <mxCell id="jrPdWScyA5hSkd9RIaAq-30" value="Items" style="text;html=1;align=center;verticalAlign=middle;resizable=0;points=[];autosize=1;strokeColor=none;fillColor=none;" vertex="1" parent="1">
          <mxGeometry x="365" y="129" width="50" height="30" as="geometry" />
        </mxCell>
        <mxCell id="jrPdWScyA5hSkd9RIaAq-31" value="(1,N)" style="text;html=1;align=center;verticalAlign=middle;whiteSpace=wrap;rounded=0;" vertex="1" parent="1">
          <mxGeometry x="425" y="129" width="60" height="30" as="geometry" />
        </mxCell>
        <mxCell id="jrPdWScyA5hSkd9RIaAq-32" value="(1,N)" style="text;html=1;align=center;verticalAlign=middle;whiteSpace=wrap;rounded=0;" vertex="1" parent="1">
          <mxGeometry x="421" y="182" width="60" height="30" as="geometry" />
        </mxCell>
      </root>
    </mxGraphModel>
  </diagram>
</mxfile>
